<?xml version="1.0" encoding="UTF-8"?>
<svg id="Layer_2" data-name="Layer 2" xmlns="http://www.w3.org/2000/svg" viewBox="0 0 31.71 31.72">
  <defs>
    <style>
      .cls-1 {
        fill: #61a5a0;
      }
    </style>
  </defs>
  <g id="Layer_1-2" data-name="Layer 1">
    <path id="Icon_awesome-cookie-bite" data-name="Icon awesome-cookie-bite" class="cls-1" d="m31.62,15.85c-4.34-.05-7.83-3.58-7.83-7.92-4.34,0-7.87-3.49-7.92-7.83-1.69-.26-3.42.02-4.94.79l-4.28,2.18c-1.54.79-2.79,2.04-3.58,3.58L.9,10.92C.11,12.46-.17,14.22.1,15.93l.75,4.72c.27,1.71,1.08,3.29,2.3,4.52l3.39,3.39c1.22,1.22,2.79,2.03,4.5,2.3l4.75.75c1.7.27,3.45,0,4.99-.79l4.28-2.18c1.54-.79,2.79-2.04,3.58-3.58l2.18-4.27c.78-1.53,1.06-3.26.8-4.95Zm-20.72,6.95c-1.09,0-1.98-.89-1.98-1.98s.89-1.98,1.98-1.98,1.98.89,1.98,1.98-.89,1.98-1.98,1.98h0Zm1.98-9.91c-1.09,0-1.98-.89-1.98-1.98s.89-1.98,1.98-1.98c1.09,0,1.98.89,1.98,1.98,0,1.09-.89,1.98-1.98,1.98,0,0,0,0,0,0h0Zm9.91,7.93c-1.09,0-1.98-.89-1.98-1.98s.89-1.98,1.98-1.98,1.98.89,1.98,1.98-.89,1.98-1.98,1.98h0Z"/>
  </g>
</svg>